# xmcd CD database file
#
# Track frame offsets:
#	150
#	11234
#	23009
#	35974
#	63785
#	80145
#	93225
#	115511
#	134478
#	150205
#	167082
#	184094
#	201719
#	212881
#	230986
#	248592
#
# Disc length: 3520 seconds
#
# Revision: 0
# Processed by: cddbd v1.5.2PL0 Copyright (c) Steve Scherf et al.
# Submitted via: CDex 1.51
#
DISCID=dd0dbe10
DTITLE=Joy Division - 1977-1980
DYEAR=1900
DGENRE=New Age
TTITLE0=01 - Warsaw
TTITLE1=02 - Leaders of Men
TTITLE2=03 - Digital
TTITLE3=04 - Autosuggestion
TTITLE4=05 - Transmission
TTITLE5=07 - Incubation
TTITLE6=08 - Dead Souls
TTITLE7=09 - Atmosphere
TTITLE8=10 - Love Will Tear Us Apart
TTITLE9=11 - No Love Lost
TTITLE10=12 - Failures
TTITLE11=13 - Glass
TTITLE12=14 - From Safety to Where
TTITLE13=15 - Novelty
TTITLE14=16 - Komakino
TTITLE15=17 - These Days
EXTD=
EXTT0=
EXTT1=
EXTT2=
EXTT3=
EXTT4=
EXTT5=
EXTT6=
EXTT7=
EXTT8=
EXTT9=
EXTT10=
EXTT11=
EXTT12=
EXTT13=
EXTT14=
EXTT15=
PLAYORDER=
